<?xml version="1.0" encoding="utf-8"?>
<!-- Generator: Adobe Illustrator 24.2.1, SVG Export Plug-In . SVG Version: 6.00 Build 0)  -->
<svg version="1.1" xmlns="http://www.w3.org/2000/svg" xmlns:xlink="http://www.w3.org/1999/xlink" x="0px" y="0px"
	 viewBox="0 0 48 48" style="enable-background:new 0 0 48 48;" xml:space="preserve">
<style type="text/css">
	.st0{fill:url(#SVGID_1_);}
	.st1{fill:url(#SVGID_2_);}
	.st2{fill:url(#z_1_);}
	.st3{fill:url(#SVGID_3_);}
	.st4{fill:url(#A_4_);}
	.st5{fill-opacity:0.32;}
	.st6{fill-opacity:0.33;}
	.st7{fill:#673FD8;}
	.st8{fill:none;stroke:#FFFFFF;stroke-width:2;stroke-miterlimit:10;}
	.st9{fill-opacity:0.26;}
	.st10{fill-opacity:0.28;}
	.st11{fill-opacity:0.41;}
	.st12{fill:url(#SVGID_4_);}
</style>
<g id="Layer_1">
	<g transform="translate(29.75,53.719)">
		
			<linearGradient id="SVGID_1_" gradientUnits="userSpaceOnUse" x1="-2276.7468" y1="660.5193" x2="-2255.3469" y2="702.0693" gradientTransform="matrix(1 0 0 1 2258.95 -714.641)">
			<stop  offset="0" style="stop-color:#5B779E"/>
			<stop  offset="0.399" style="stop-color:#2D3B50"/>
			<stop  offset="1" style="stop-color:#0C0E14"/>
		</linearGradient>
		<path class="st0" d="M14.7-29.8c0,11.3-8.9,20.5-20,20.5c-11,0-20-9.2-20-20.5v0c0-11.3,8.9-20.5,20-20.6S14.7-41.2,14.7-29.8
			L14.7-29.8z"/>
		
			<linearGradient id="SVGID_2_" gradientUnits="userSpaceOnUse" x1="-2299.0129" y1="617.4098" x2="-2292.5129" y2="631.6097" gradientTransform="matrix(1 0 0 1 2288.95 -662.421)">
			<stop  offset="0" style="stop-color:#000000;stop-opacity:0"/>
			<stop  offset="1" style="stop-color:#000000;stop-opacity:0.62"/>
		</linearGradient>
		<path class="st1" d="M-3.3-50.1l-8,0.5c-0.2,0-0.3,0.1-0.5,0.2l-7,4.5c-0.5,0.3-0.7,1-0.3,1.5c0.1,0.1,0.2,0.2,0.3,0.3
			c0.9,0.6,1.8,1.3,2.1,2c0.6,1.5,1.2,3.6,1.7,5.5c0.2,0.8,0.5,1.7,0.8,2.5c0.1,0.3,0.2,0.6,0.3,0.9s0.2,0.5,0.4,0.8
			c0,0,0.1,0.1,0.1,0.1c0.5,0.4,1,0.6,1.6,0.8s1.3,0.3,1.9,0.4s1.3,0.1,1.8,0.2s1,0.1,1.6-0.3c0,0,0.1,0,0.1-0.1
			c0.3-0.2,0.3-0.4,0.4-0.5s0.1-0.2,0.2-0.3c0.1-0.2,0.2-0.5,0.2-0.8c0.4-1.6,0.7-3.2,0.8-4.8c0.1-0.7,0.2-1.2,0-1.8
			c0,0,0-0.1,0-0.1h0c-0.2-0.8-0.6-1.9-1.3-3.2c-0.6-1.1-1.5-2.1-2.5-2.9c0,0,0.1-0.1,0.3-0.2l3.9,0c0.1,0,0.2,0,0.3-0.1
			c0.1,0,0.2,0,0.7-0.2c0.2-0.1,0.5-0.4,0.7-0.6s0.2-0.5,0.2-0.7l0.2-2.3c0.1-0.6-0.3-1.1-0.9-1.2C-3.2-50.1-3.2-50.1-3.3-50.1z"/>
		
			<radialGradient id="z_1_" cx="-3332.0156" cy="353.7054" r="7.5" gradientTransform="matrix(3.7445 -0.7613 0.396 1.9477 12323.5391 -3271.4861)" gradientUnits="userSpaceOnUse">
			<stop  offset="0" style="stop-color:#E6F1FD"/>
			<stop  offset="0" style="stop-color:#BDD9F9"/>
			<stop  offset="6.500000e-02" style="stop-color:#BDD9F9"/>
			<stop  offset="1" style="stop-color:#1C3556;stop-opacity:0.1"/>
		</radialGradient>
		<path id="z" class="st2" d="M-3.2-49l-0.2,2.3c-0.1,0.6-0.3,0.5-0.8,0.6l-4.1,0c-1.2,0.4-1.3,1-1.3,1.6c2.3,1.3,3.7,4.9,4,6
			c0.3,1-0.8,6.9-1.2,7.2c-0.7,0.4-4.7-0.2-5.8-1c-0.5-0.6-1.8-6.2-3-9.2c-0.4-1.1-1.6-1.9-2.5-2.5l7-4.5L-3.2-49z"/>
		
			<linearGradient id="SVGID_3_" gradientUnits="userSpaceOnUse" x1="-2316.1221" y1="615.9346" x2="-2304.822" y2="640.1846" gradientTransform="matrix(1 0 0 1 2288.95 -662.421)">
			<stop  offset="0" style="stop-color:#000000;stop-opacity:0"/>
			<stop  offset="1" style="stop-color:#000000;stop-opacity:0.62"/>
		</linearGradient>
		<path class="st3" d="M-23.2-37.4c-0.4,0-0.7,0.3-0.8,0.7l-2.4,8.2c-0.1,0.4,0,0.8,0.4,1c0.9,0.6,1.9,1.3,2.2,2.1
			c0,0.1,0.1,0.1,0.1,0.2c0,0,0,0,0,0.1c0,0.2,0.1,0.5,0.2,0.9c0.1,0.7,0.3,1.7,0.5,2.8s0.5,2.1,0.9,3s1,1.8,2,2.1
			c-0.2-0.1,0,0,0.1,0.1s0.3,0.2,0.5,0.3c0.4,0.3,1,0.7,1.6,1s1.1,0.8,1.6,1.1c0.2,0.1,0.4,0.2,0.6,0.3c0.1,0,0.2,0.1,0.3,0.1
			s0.2,0.1,0.6,0.1c0.5-0.1,0.6-0.4,0.7-0.5s0.1-0.2,0.1-0.3c0.1-0.2,0.1-0.4,0.2-0.6c0.1-0.5,0.1-1,0.2-1.6
			c0.1-0.5,0.1-1.1,0.2-1.5c0-0.2,0-0.2,0.1-0.3c0.1-0.1,0.2-0.1,0.2-0.1c0.2-0.3,0.2-0.6,0.2-0.8c0-0.5-0.2-0.8-0.3-1.2
			c-0.4-0.8-1-1.7-1.6-2.6c-1.3-1.8-2.8-3.6-3.4-4.3c-0.1-0.2-0.1-0.4-0.2-0.6c-0.1-0.2-0.2-0.5-0.2-0.8c1.4,0.6,2.8,1.1,4.4,1.3
			c0.1,0,0.2,0,0.3,0c0.5-0.1,1-0.2,1.4-0.4c0.3-0.1,0.6-0.2,0.8-0.5s0.5-0.6,0.6-1.1c0-0.2,0-0.4-0.2-0.6c-1.8-2.7-4.3-3.3-7-4.3
			l-1.5-1.9c-0.1-0.1-0.2-0.2-0.3-0.2l-2.5-1.1C-22.9-37.4-23.1-37.4-23.2-37.4z"/>
		
			<radialGradient id="A_4_" cx="-3330.9158" cy="349.0754" r="7.5" gradientTransform="matrix(3.7445 -0.7613 0.396 1.9477 12316.2393 -3255.6863)" gradientUnits="userSpaceOnUse">
			<stop  offset="0" style="stop-color:#E6F1FD"/>
			<stop  offset="0" style="stop-color:#BDD9F9"/>
			<stop  offset="6.500000e-02" style="stop-color:#BDD9F9"/>
			<stop  offset="1" style="stop-color:#1C3556;stop-opacity:0.1"/>
		</radialGradient>
		<path id="A" class="st4" d="M-19-33.3c2.8,1.1,5.1,1.6,6.8,4c-0.1,0.6-1.5,1.1-2.1,1.2c-1.7-0.2-3.3-0.8-4.8-1.5
			c-1.5-0.3-0.2,2.4-0.1,2.9c1.1,1.2,6.5,7.8,5,8c-0.4,0-0.5,4.4-0.9,4.5s-4.5-2.9-4.8-3.1c-2.4-0.8-2.8-8.2-3.2-8.4
			c-0.4-1.1-1.6-1.9-2.5-2.5l2.4-8.2l2.5,1.1L-19-33.3z"/>
	</g>
	<g>
		<path class="st5" d="M44.3,13.1l0-6.9c0-0.7-0.5-1.2-1.2-1.2c0,0,0,0,0,0l-6.3-0.1c-0.7,0-1.2,0.5-1.2,1.2c0,0.3,0.1,0.6,0.3,0.9
			l6.4,7c0.3,0.4,0.9,0.5,1.4,0.3C44,14.1,44.3,13.7,44.3,13.1z"/>
		<path class="st5" d="M43.9,13.1l0-6.9c0-0.4-0.4-0.8-0.8-0.8l-6.3-0.1c-0.5,0-0.8,0.4-0.8,0.8c0,0.2,0.1,0.4,0.2,0.6l6.4,7
			c0.3,0.3,0.8,0.4,1.2,0.1C43.8,13.6,43.9,13.4,43.9,13.1z"/>
		<path class="st5" d="M43.6,13.1l0-6.9c0-0.1-0.1-0.3-0.2-0.4c-0.1-0.1-0.3-0.2-0.4-0.2l-6.3-0.1c-0.3,0-0.6,0.2-0.6,0.6
			c0,0.1,0.1,0.3,0.2,0.4l6.4,7c0.2,0.2,0.6,0.3,0.8,0C43.6,13.5,43.6,13.3,43.6,13.1z"/>
	</g>
	<path class="st6" d="M43.3,13.1l0-6.9c0,0,0-0.1,0-0.1c0,0,0-0.1-0.1-0.1c0,0,0,0,0,0c0,0-0.1,0-0.1,0c0,0,0,0,0,0l-6.3-0.1
		c0,0,0,0-0.1,0c0,0-0.1,0-0.1,0c0,0,0,0-0.1,0.1c0,0,0,0.1,0,0.1c0,0.1,0,0.1,0,0.2c0,0,0,0.1,0.1,0.1l6.4,7
		c0.1,0.1,0.1,0.1,0.2,0.1c0,0,0.1,0,0.1,0c0,0,0,0,0,0C43.3,13.3,43.3,13.3,43.3,13.1C43.3,13.2,43.3,13.2,43.3,13.1z"/>
	<path class="st7" d="M37.1,6.3l5.9,0L43,12.6L37.1,6.3z"/>
	<g>
		<path class="st5" d="M37.1,42.6l6.9,0c0.7,0,1.2-0.5,1.2-1.2c0,0,0,0,0,0l0.1-6.3c0-0.7-0.5-1.2-1.2-1.2c-0.3,0-0.6,0.1-0.9,0.3
			l-7,6.4c-0.5,0.5-0.5,1.2-0.1,1.7C36.4,42.4,36.8,42.6,37.1,42.6z"/>
		<path class="st5" d="M37.1,42.2l6.9,0c0.4,0,0.8-0.4,0.8-0.8L45,35c0-0.5-0.4-0.8-0.8-0.8c-0.2,0-0.4,0.1-0.6,0.2l-7,6.4
			c-0.3,0.3-0.4,0.8-0.1,1.2C36.7,42.1,36.9,42.2,37.1,42.2z"/>
		<path class="st5" d="M37.1,41.9l6.9,0c0.3,0,0.6-0.2,0.6-0.6c0,0,0,0,0,0l0.1-6.3c0-0.3-0.2-0.6-0.5-0.6c-0.1,0-0.3,0.1-0.4,0.2
			l-7,6.4c-0.3,0-0.6,0.3-0.5,0.6c0,0.3,0.3,0.6,0.6,0.5C36.9,42,37,42,37.1,41.9z"/>
	</g>
	<path class="st6" d="M37.1,41.6l6.9,0c0,0,0.1,0,0.1,0c0,0,0.1,0,0.1-0.1c0,0,0,0,0,0c0,0,0-0.1,0-0.1c0,0,0,0,0,0l0.1-6.3
		c0,0,0,0,0-0.1c0,0,0-0.1,0-0.1c0,0,0,0-0.1-0.1c0,0-0.1,0-0.1,0c-0.1,0-0.1,0-0.2,0c0,0-0.1,0-0.1,0.1l-7,6.4
		c-0.1,0.1-0.1,0.1-0.1,0.2c0,0,0,0.1,0,0.1c0,0,0,0,0,0C36.9,41.5,37,41.6,37.1,41.6C37,41.6,37.1,41.6,37.1,41.6z"/>
	<path class="st7" d="M44,34.1l0,7.1h-6.8L44,34.1z"/>
	<g>
		<path class="st5" d="M2.6,34.3l0,6.9c0,0.7,0.5,1.2,1.2,1.2c0,0,0,0,0,0l6.3,0.1c0.5,0,0.9-0.3,1.1-0.7c0.2-0.5,0.1-1-0.2-1.3
			l-6.4-7C4.3,33,3.5,33,3,33.4C2.8,33.7,2.6,34,2.6,34.3z"/>
		<path class="st5" d="M3.1,34.4l0,6.9c0,0.4,0.4,0.8,0.8,0.8l6.3,0.1c0.5,0,0.8-0.4,0.8-0.8c0-0.2-0.1-0.4-0.2-0.6l-6.4-7
			c-0.2-0.3-0.6-0.3-0.9-0.2C3.3,33.7,3.1,34,3.1,34.4z"/>
		<path class="st5" d="M3.3,34.3l0,6.9c0,0.1,0.1,0.3,0.2,0.4c0.1,0.1,0.2,0.2,0.4,0.2l6.3,0.1c0.3,0,0.6-0.2,0.6-0.5
			c0-0.1-0.1-0.3-0.2-0.4l-6.4-7c-0.2-0.2-0.6-0.3-0.8,0C3.4,34,3.3,34.2,3.3,34.3z"/>
	</g>
	<path class="st6" d="M3.6,34.3l0,6.9c0,0,0,0.1,0,0.1c0,0,0,0.1,0.1,0.1c0,0,0,0,0,0c0,0,0.1,0,0.1,0c0,0,0,0,0,0l6.3,0.1
		c0,0,0,0,0.1,0c0,0,0.1,0,0.1,0c0,0,0,0,0.1-0.1c0,0,0-0.1,0-0.1c0-0.1,0-0.1,0-0.2c0,0,0-0.1-0.1-0.1l-6.4-7
		c-0.1-0.1-0.1-0.1-0.2-0.1c0,0-0.1,0-0.1,0c0,0,0,0,0,0C3.7,34.2,3.6,34.2,3.6,34.3C3.6,34.3,3.6,34.3,3.6,34.3z"/>
	<path class="st7" d="M10.4,41.2H4v-7L10.4,41.2z"/>
	<g>
		<path class="st5" d="M11.9,5L5,5C4.3,5,3.8,5.5,3.7,6.2c0,0,0,0,0,0l-0.1,6.3c0,0.7,0.5,1.2,1.2,1.2c0.3,0,0.6-0.1,0.9-0.3l7-6.4
			c0.5-0.5,0.5-1.2,0.1-1.7C12.6,5.1,12.3,5,11.9,5z"/>
		<path class="st5" d="M11.9,5.4L5,5.4c-0.4,0-0.8,0.4-0.8,0.8l-0.1,6.3c0,0.5,0.4,0.8,0.8,0.8c0.2,0,0.4-0.1,0.6-0.2l7-6.4
			c0.3-0.3,0.4-0.8,0.1-1.2C12.4,5.5,12.2,5.4,11.9,5.4z"/>
		<path class="st5" d="M11.9,5.7L5,5.7c-0.3,0-0.6,0.2-0.6,0.5c0,0,0,0,0,0l-0.1,6.3c0,0.3,0.2,0.6,0.5,0.6c0.1,0,0.3-0.1,0.4-0.2
			l7-6.4c0.2-0.2,0.2-0.6,0-0.8C12.3,5.7,12.1,5.7,11.9,5.7z"/>
	</g>
	<path class="st6" d="M11.9,5.9L5,6c0,0-0.1,0-0.1,0c0,0-0.1,0-0.1,0.1c0,0,0,0,0,0c0,0,0,0.1,0,0.1c0,0,0,0,0,0l-0.1,6.3
		c0,0,0,0,0,0.1c0,0,0,0.1,0,0.1c0,0,0,0,0.1,0.1c0,0,0.1,0,0.1,0c0.1,0,0.1,0,0.2,0c0,0,0.1,0,0.1-0.1l7-6.4
		c0.1-0.1,0.1-0.1,0.1-0.2c0,0,0-0.1,0-0.1c0,0,0,0,0,0C12.1,6,12.1,6,11.9,5.9C12,6,12,5.9,11.9,5.9z"/>
	<path id="B" class="st7" d="M4.9,12.6l0-6.3l6.9,0L4.9,12.6z"/>
	<path id="A_3_" class="st8" d="M12.1,12.4H19v6.9h-6.9V12.4z M14.7,15.9h1.7"/>
	<g>
		<path id="A_1_" class="st8" d="M27.7,12.4h6.9v6.9h-6.9V12.4z M30.3,15.9h1.7"/>
	</g>
	<g>
		<path id="A_2_" class="st8" d="M12.1,28H19V35h-6.9V28z M14.7,31.5h1.7"/>
	</g>
</g>
<g id="Layer_3">
	<path class="st9" d="M24,1.2C11.4,1.2,1.2,11.4,1.2,24S11.4,46.8,24,46.8c12.6,0,22.8-10.2,22.8-22.8S36.6,1.2,24,1.2z M23.9,5.1
		c10.3,0,18.7,8.4,18.7,18.8s-8.4,18.8-18.7,18.8S5.2,34.2,5.2,23.8C5.2,13.5,13.6,5.1,23.9,5.1z"/>
	<path class="st10" d="M24,0.8C11.2,0.8,0.8,11.2,0.8,24c0,12.8,10.4,23.2,23.2,23.2S47.2,36.8,47.2,24C47.2,11.2,36.8,0.8,24,0.8z
		 M23.9,5.4c10.1,0,18.3,8.2,18.3,18.4S34,42.3,23.9,42.3C13.8,42.3,5.5,34,5.5,23.8C5.5,13.7,13.8,5.4,23.9,5.4z"/>
	<path class="st11" d="M24,0.2C10.9,0.2,0.3,10.9,0.3,24S10.9,47.8,24,47.8c13.1,0,23.7-10.6,23.7-23.8S37.1,0.2,24,0.2z M23.9,6
		c9.8,0,17.8,8,17.8,17.8s-7.9,17.9-17.8,17.9s-17.8-8-17.8-17.9S14.1,6,23.9,6z"/>
	<path id="D" class="st7" d="M24,1.5C11.6,1.5,1.5,11.6,1.5,24c0,12.4,10.1,22.5,22.5,22.5S46.5,36.4,46.5,24
		C46.5,11.6,36.4,1.5,24,1.5z M23.9,4.8c10.5,0,19,8.5,19,19.1S34.4,43,23.9,43S4.8,34.4,4.8,23.8S13.4,4.8,23.9,4.8z"/>
	
		<linearGradient id="SVGID_4_" gradientUnits="userSpaceOnUse" x1="-2192.3635" y1="704.8143" x2="-2219.1636" y2="666.9044" gradientTransform="matrix(1 0 0 1 2228.8 -663.43)">
		<stop  offset="0" style="stop-color:#FFE12B"/>
		<stop  offset="0.136" style="stop-color:#FFF7C7;stop-opacity:0"/>
		<stop  offset="0.819" style="stop-color:#FFF7C7;stop-opacity:0"/>
		<stop  offset="1" style="stop-color:#FFE12B"/>
	</linearGradient>
	<path class="st12" d="M23.4,1.6C11.7,1.6,2.1,11.2,2.1,23s9.5,21.3,21.3,21.3S44.7,34.8,44.7,23S35.2,1.6,23.4,1.6z M23.3,2.6
		c11.1,0,20.2,9.1,20.2,20.2s-9,20.3-20.2,20.3S3.1,34,3.1,22.8S12.2,2.6,23.3,2.6z"/>
</g>
</svg>
